<svg xmlns="http://www.w3.org/2000/svg" width="89.976" height="90" viewBox="0 0 89.976 90">
  <g id="Lag_2_1_" transform="translate(-0.075 0.025)">
    <g id="Layer_1" transform="translate(0.075 -0.025)">
      <path id="Path_4" data-name="Path 4" d="M76.87,13.156a44.991,44.991,0,1,0,0,63.639A44.969,44.969,0,0,0,76.87,13.156ZM57.584,26.806c0,.476-.143.618-.618.618-1.5-.024-3,0-4.471,0a2.946,2.946,0,0,0-3.306,3c-.1,1.57-.024,3.163-.071,4.756,0,.571.309.523.69.523,2.259,0,4.542.024,6.8-.024.666,0,.88.143.809.832-.285,2.64-.523,5.279-.761,7.943-.048.595-.333.713-.856.69-1.784-.024-3.591-.024-5.375,0-1.284,0-1.165-.19-1.165,1.118,0,8.252-.024,16.48.024,24.732,0,.88-.214,1.094-1.07,1.07-3.068-.048-6.159-.048-9.227,0-.856.024-1-.285-1-1.046.024-4.186,0-8.323,0-12.485,0-4.209-.024-8.419.024-12.628,0-.713-.19-.927-.9-.9-1.308.048-2.616,0-3.948.024-.523.024-.737-.143-.713-.69.024-2.616.024-5.256,0-7.872,0-.5.143-.666.666-.666,1.356.024,2.687-.048,4.043.024.785.048.927-.238.927-.951q-.071-3,0-5.993a11.452,11.452,0,0,1,2.164-6.706,9.3,9.3,0,0,1,7.467-3.8c3.092-.143,6.207-.048,9.322-.1.428,0,.571.143.571.571C57.56,21.5,57.56,24.166,57.584,26.806Z" transform="translate(-0.075 0.025)" fill="#333"/>
      <path id="Path_5" data-name="Path 5" d="M161.331,85.437c0,.476-.143.618-.618.618-1.5-.024-3,0-4.471,0a2.946,2.946,0,0,0-3.306,3c-.1,1.57-.024,3.163-.071,4.756,0,.571.309.523.69.523,2.259,0,4.542.024,6.8-.024.666,0,.88.143.809.832-.285,2.64-.523,5.279-.761,7.943-.048.595-.333.713-.856.69-1.784-.024-3.591-.024-5.375,0-1.284,0-1.165-.19-1.165,1.118,0,8.252-.024,16.48.024,24.732,0,.88-.214,1.094-1.07,1.07-3.068-.048-6.159-.048-9.227,0-.856.024-1-.285-1-1.046.024-4.185,0-8.323,0-12.485,0-4.209-.024-8.419.024-12.628,0-.713-.19-.927-.9-.9-1.308.048-2.616,0-3.948.024-.523.024-.737-.143-.713-.69.024-2.616.024-5.256,0-7.872,0-.5.143-.666.666-.666,1.356.024,2.687-.048,4.043.024.785.048.927-.238.927-.951q-.071-3,0-5.993a11.452,11.452,0,0,1,2.164-6.706,9.3,9.3,0,0,1,7.467-3.8c3.092-.143,6.207-.048,9.322-.1.428,0,.571.143.571.571C161.307,80.134,161.307,82.8,161.331,85.437Z" transform="translate(-103.822 -58.606)" fill="none" stroke="#fff" stroke-miterlimit="10" stroke-width="1" fill-rule="evenodd"/>
    </g>
  </g>
</svg>
