<svg id="instagram-seeklogo.com" xmlns="http://www.w3.org/2000/svg" width="90.896" height="90.86" viewBox="0 0 90.896 90.86">
  <path id="Path_3" data-name="Path 3" d="M45.412,8.2c12.134,0,13.553.035,18.342.248A25.965,25.965,0,0,1,72.2,10a13.87,13.87,0,0,1,5.215,3.406,13.871,13.871,0,0,1,3.406,5.215,25.017,25.017,0,0,1,1.561,8.444c.213,4.79.248,6.209.248,18.342s-.035,13.553-.248,18.342A25.965,25.965,0,0,1,80.82,72.2,15.163,15.163,0,0,1,72.2,80.82a25.017,25.017,0,0,1-8.444,1.561c-4.79.213-6.209.248-18.342.248s-13.553-.035-18.342-.248a25.965,25.965,0,0,1-8.444-1.561,13.87,13.87,0,0,1-5.215-3.406A13.87,13.87,0,0,1,10,72.2a25.017,25.017,0,0,1-1.561-8.444c-.213-4.79-.248-6.209-.248-18.342s.035-13.553.248-18.342A25.964,25.964,0,0,1,10,18.626a13.87,13.87,0,0,1,3.406-5.215A13.87,13.87,0,0,1,18.626,10,25.016,25.016,0,0,1,27.07,8.444c4.79-.213,6.209-.248,18.342-.248m0-8.2C33.066,0,31.54.035,26.68.284a33.573,33.573,0,0,0-11,2.093A22.083,22.083,0,0,0,7.628,7.628a22.549,22.549,0,0,0-5.251,8.054A32.714,32.714,0,0,0,.284,26.715C.035,31.54,0,33.066,0,45.412S.035,59.285.284,64.145A34.009,34.009,0,0,0,2.377,75.179a22.083,22.083,0,0,0,5.251,8.054,22.549,22.549,0,0,0,8.054,5.251,32.714,32.714,0,0,0,11.034,2.093c4.861.213,6.386.284,18.733.284s13.872-.035,18.733-.284a34.009,34.009,0,0,0,11.034-2.093,22.083,22.083,0,0,0,8.054-5.251,22.549,22.549,0,0,0,5.251-8.054,32.714,32.714,0,0,0,2.093-11.034c.213-4.861.284-6.386.284-18.733S90.86,31.54,90.612,26.68a34.009,34.009,0,0,0-2.093-11.034,22.083,22.083,0,0,0-5.251-8.054,22.7,22.7,0,0,0-8.125-5.215A32.714,32.714,0,0,0,64.11.284C59.285.035,57.759,0,45.412,0Zm0,22.1A23.309,23.309,0,1,0,68.722,45.412,23.3,23.3,0,0,0,45.412,22.1Zm0,38.459A15.149,15.149,0,1,1,60.562,45.412,15.141,15.141,0,0,1,45.412,60.562Zm29.7-39.381a5.446,5.446,0,1,1-5.428-5.464A5.466,5.466,0,0,1,75.108,21.181Z" transform="translate(0 0)" fill="#333"/>
</svg>
